<svg xmlns="http://www.w3.org/2000/svg" xmlns:xlink="http://www.w3.org/1999/xlink" width="400" height="400" viewBox="0 0 400 400">
<rect data-name="background" width="100%" height="100%" fill="#000000"/><g data-name="icon" fill="#FFFFFF" data="id:7677567" transform="translate(-2.8512627433063606,59.09351210279956) scale(2.817691965761981)">
    
 <path d="m72.129 46.223c1.2109 0 2.1953-0.98438 2.1953-2.1953v-1.1133h8.8398c0.375 1.7148 1.9023 3.0078 3.7305 3.0078 2.1055 0 3.8203-1.7148 3.8203-3.8203 0-2.1055-1.7148-3.8203-3.8203-3.8203-1.8281 0-3.3555 1.2891-3.7305 3.0078h-8.8398v-1.1133c0-1.2109-0.98438-2.1953-2.1953-2.1953h-1.4648c-0.074218-0.27734-0.15234-0.55469-0.24219-0.82812l4.4727-4.4062h6.1328c0.375 1.7148 1.9023 3.0078 3.7305 3.0078 2.1055 0 3.8203-1.7148 3.8203-3.8203 0-2.1055-1.7148-3.8203-3.8203-3.8203-1.8281 0-3.3555 1.2891-3.7305 3.0078h-6.4688c-0.21484 0-0.41797 0.085937-0.57031 0.23438l-4.2188 4.1602c-0.19531-0.42188-0.40625-0.83203-0.63672-1.2344l1.0352-1.0352c0.85547-0.85547 0.85547-2.25 0-3.1055l-2.7227-2.7227c-0.85547-0.85547-2.25-0.85547-3.1055 0l-1.0352 1.0352c-0.28125-0.16016-0.5625-0.31641-0.84766-0.45703l2.168-2.8477h7.4609c0.375 1.7148 1.9023 3.0078 3.7305 3.0078 2.1055 0 3.8203-1.7148 3.8203-3.8203 0-2.1055-1.7148-3.8203-3.8203-3.8203-1.8281 0-3.3555 1.2891-3.7305 3.0078h-7.8633c-0.25391 0-0.49219 0.11719-0.64844 0.32031l-2.6641 3.4961c-0.42969-0.15625-0.86719-0.29688-1.3125-0.41797v-1.4648c0-1.2109-0.98438-2.1953-2.1953-2.1953h-3.8516c-1.2109 0-2.1953 0.98438-2.1953 2.1953v1.4648c-1.3008 0.35156-2.5391 0.86328-3.707 1.5352l-1.0352-1.0352c-0.85547-0.85547-2.25-0.85547-3.1055 0l-0.47656 0.47656c-1.6406-0.4375-3.3516-0.67188-5.1094-0.67969h-0.10156c-6.2266 0-11.777 2.8359-15.242 7.793-3.5117 5.0234-4.3008 11.543-2.1133 17.441 1.0078 2.7109 2.4922 4.5508 3.9297 6.332 2.0625 2.5508 4.0078 4.9648 4.5547 9.8906-0.63281 0.57812-1.0352 1.4062-1.0352 2.3281 0 1.1172 0.58594 2.0977 1.4609 2.6602-0.47656 0.55469-0.77344 1.2656-0.77344 2.0508 0 1.75 1.4219 3.1719 3.1719 3.1719h0.17969c0.39062 2.7695 2.9766 4.0977 5.418 4.1484h0.16016c2.6094 0 5.2344-1.4102 5.7305-4.1523h0.16406c1.75 0 3.1719-1.4219 3.1719-3.1719 0-0.78516-0.29688-1.4961-0.77344-2.0508 0.875-0.56641 1.4609-1.543 1.4609-2.6602 0-0.9375-0.41797-1.7734-1.0703-2.3555 0.64062-4.8945 2.6523-7.3516 4.7852-9.9453 0.11328-0.14062 0.23438-0.29297 0.34766-0.43359v0.50391c0 1.2109 0.98438 2.1953 2.1953 2.1953h3.8516c1.2109 0 2.1953-0.98438 2.1953-2.1953v-1.4648c0.44531-0.12109 0.88281-0.25781 1.3125-0.41797l2.6641 3.4961c0.15234 0.20313 0.39453 0.32031 0.64844 0.32031h7.8633c0.375 1.7148 1.9023 3.0078 3.7305 3.0078 2.1055 0 3.8203-1.7148 3.8203-3.8203s-1.7148-3.8203-3.8203-3.8203c-1.8281 0-3.3555 1.2891-3.7305 3.0078h-7.4609l-2.168-2.8477c0.28906-0.14062 0.57031-0.29688 0.84766-0.45703l1.0352 1.0352c0.42969 0.42969 0.99219 0.64062 1.5508 0.64062 0.5625 0 1.125-0.21484 1.5508-0.64062l2.7227-2.7227c0.85547-0.85547 0.85547-2.25 0-3.1055l-1.0352-1.0352c0.32031-0.55469 0.61328-1.125 0.85938-1.7109l4.1797 4.1172c0.15234 0.14844 0.35938 0.23438 0.57031 0.23438h6.4688c0.375 1.7148 1.9023 3.0078 3.7305 3.0078 2.1055 0 3.8203-1.7148 3.8203-3.8203 0-2.1055-1.7148-3.8203-3.8203-3.8203-1.8281 0-3.3555 1.2891-3.7305 3.0078h-6.1328l-4.4883-4.4258c0.027344-0.097656 0.054687-0.19531 0.078125-0.29297h1.4648zm14.762-6.3125c1.207 0 2.1914 0.98438 2.1914 2.1914 0 1.207-0.98438 2.1914-2.1914 2.1914s-2.1914-0.98438-2.1914-2.1914c0-1.207 0.98438-2.1914 2.1914-2.1914zm-2.1367-10.172c1.207 0 2.1914 0.98438 2.1914 2.1914 0 1.207-0.98437 2.1914-2.1914 2.1914-1.207 0-2.1914-0.98438-2.1914-2.1914 0-1.207 0.98438-2.1914 2.1914-2.1914zm-8.9453-7.6055c1.207 0 2.1914 0.98438 2.1914 2.1914s-0.98438 2.1914-2.1914 2.1914c-1.207 0-2.1914-0.98438-2.1914-2.1914s0.98437-2.1914 2.1914-2.1914zm0 35.551c1.207 0 2.1914 0.98438 2.1914 2.1914s-0.98438 2.1914-2.1914 2.1914c-1.207 0-2.1914-0.98438-2.1914-2.1914s0.98437-2.1914 2.1914-2.1914zm9.125-8.1211c1.207 0 2.1914 0.98438 2.1914 2.1914 0 1.207-0.98438 2.1914-2.1914 2.1914-1.207 0-2.1914-0.98437-2.1914-2.1914 0-1.207 0.98437-2.1914 2.1914-2.1914zm-39.277 21.43c0 0.85156-0.69141 1.543-1.543 1.543h-13.023c-0.85156 0-1.543-0.69141-1.543-1.543 0-0.85156 0.69141-1.543 1.543-1.543h13.023c0.85156 0 1.543 0.69141 1.543 1.543zm-8.2461 10.402c-1.707-0.039062-3.4141-0.83594-3.8008-2.5195h7.9883c-0.5 1.7773-2.4141 2.5625-4.1875 2.5195zm6.0195-4.1484h-11.652c-0.85156 0-1.543-0.69141-1.543-1.543s0.69141-1.543 1.543-1.543h11.652c0.85156 0 1.543 0.69141 1.543 1.543s-0.69141 1.543-1.543 1.543zm1.2539-9.3672c-0.18359-0.035156-0.37109-0.058594-0.56641-0.058594h-13.023c-0.20312 0-0.40234 0.023438-0.59766 0.058594-0.69141-5-2.793-7.6094-4.8281-10.133-1.418-1.7539-2.7578-3.4102-3.6719-5.875-2.0039-5.3984-1.2852-11.355 1.9219-15.941 3.1562-4.5156 8.2227-7.0977 13.91-7.0977h0.09375c1.2891 0.007813 2.5508 0.14062 3.7695 0.39844l-0.90234 0.90234c-0.85547 0.85547-0.85547 2.25 0 3.1055l1.0352 1.0352c-0.66797 1.1641-1.1836 2.4062-1.5352 3.707h-1.4648c-1.2109 0-2.1953 0.98438-2.1953 2.1953v3.8516c0 0.58594 0.23047 1.1367 0.64453 1.5508 0.41406 0.41406 0.96484 0.64453 1.5508 0.64453h1.4648c0.35156 1.3008 0.86328 2.5391 1.5352 3.707l-1.0352 1.0352c-0.41406 0.41406-0.64062 0.96484-0.64062 1.5508s0.22656 1.1406 0.64062 1.5508l2.7227 2.7227c0.42969 0.42969 0.99219 0.64063 1.5508 0.64063 0.5625 0 1.125-0.21484 1.5508-0.64063l1.0352-1.0352c0.84766 0.48438 1.7305 0.89062 2.6523 1.2109-0.1875 0.23047-0.37109 0.46484-0.55469 0.6875-2.1094 2.5664-4.2812 5.2266-5.0625 10.223zm24.328-14.961-2.7227 2.7227c-0.22266 0.22266-0.58203 0.22266-0.80078 0l-1.4766-1.4766c-0.019531-0.019531-0.039063-0.023437-0.058594-0.039062-0.042969-0.035156-0.089844-0.066406-0.13672-0.089844-0.046875-0.023437-0.089844-0.046875-0.13672-0.0625-0.050782-0.015625-0.10156-0.023437-0.15234-0.03125-0.050782-0.003906-0.10156-0.007812-0.15234-0.003906s-0.097656 0.015625-0.14844 0.027344c-0.054687 0.015625-0.10547 0.03125-0.15234 0.058594-0.023438 0.011718-0.046875 0.011718-0.066407 0.027343-1.3555 0.85547-2.8359 1.4688-4.3984 1.8203-0.023437 0.003906-0.042969 0.023437-0.066406 0.03125-0.054688 0.015625-0.10156 0.039062-0.14844 0.066406s-0.085937 0.050781-0.125 0.085938c-0.039062 0.035156-0.074219 0.070312-0.10547 0.11328-0.03125 0.039062-0.0625 0.082031-0.085937 0.12891s-0.039063 0.089844-0.054687 0.14062c-0.015626 0.054688-0.027344 0.10547-0.03125 0.16016-0.003907 0.023438-0.015626 0.046875-0.015626 0.070313v2.0898c0 0.3125-0.25391 0.56641-0.56641 0.56641h-3.8516c-0.3125 0-0.56641-0.25391-0.56641-0.56641v-2.0898c0-0.023438-0.011719-0.046875-0.015626-0.070313-0.003906-0.054687-0.015624-0.10938-0.03125-0.16016-0.015624-0.050781-0.03125-0.097656-0.054687-0.14062-0.023437-0.046875-0.054687-0.085937-0.085937-0.12891-0.03125-0.039063-0.066407-0.078125-0.10547-0.11328-0.039063-0.03125-0.082031-0.058594-0.125-0.085938-0.046875-0.027344-0.097657-0.050781-0.14844-0.066406-0.023437-0.007813-0.042969-0.023438-0.066406-0.03125-1.5664-0.35547-3.0469-0.96484-4.3984-1.8203-0.019532-0.011719-0.046876-0.015625-0.066407-0.027343-0.050781-0.027344-0.10156-0.042969-0.15234-0.058594-0.050782-0.015625-0.097657-0.023438-0.14844-0.027344s-0.10156 0-0.15234 0.003906c-0.050781 0.003906-0.10156 0.015625-0.15234 0.03125-0.046874 0.015625-0.09375 0.035156-0.13672 0.0625-0.050782 0.027344-0.09375 0.054688-0.13672 0.089844-0.019531 0.015625-0.042969 0.023438-0.058594 0.039062l-1.4766 1.4766c-0.21875 0.21875-0.58594 0.21875-0.80078 0l-2.7227-2.7227c-0.10547-0.10547-0.16406-0.25-0.16406-0.40234s0.058593-0.29688 0.16406-0.40234l1.4766-1.4766c0.019531-0.019531 0.023437-0.042969 0.039062-0.058594 0.035156-0.042969 0.066406-0.085937 0.089844-0.13672 0.023438-0.046875 0.046875-0.089844 0.0625-0.14062s0.023438-0.097656 0.03125-0.15234c0.003906-0.050782 0.007812-0.10156 0.003906-0.15625-0.003906-0.050782-0.015625-0.097657-0.027344-0.14844-0.015624-0.054688-0.03125-0.10547-0.058593-0.15234-0.011719-0.023437-0.011719-0.046875-0.027344-0.066406-0.85547-1.3555-1.4688-2.8359-1.8203-4.3984-0.003906-0.023437-0.023437-0.042968-0.03125-0.066406-0.015624-0.054687-0.039062-0.10156-0.066406-0.14844s-0.050781-0.085938-0.085937-0.125c-0.035157-0.039063-0.070313-0.070313-0.10938-0.10547-0.042969-0.03125-0.082032-0.0625-0.12891-0.085938-0.042969-0.023437-0.089844-0.039062-0.14063-0.054687-0.054687-0.015625-0.10547-0.027344-0.16406-0.03125-0.023438-0.003906-0.046875-0.015625-0.070312-0.015625h-2.0898c-0.14844 0-0.29297-0.058594-0.39844-0.16797-0.10938-0.10938-0.16797-0.25-0.16797-0.39844v-3.8516c0-0.3125 0.25391-0.56641 0.56641-0.56641h2.0859 0.003907c0.10156 0 0.19922-0.023437 0.29297-0.058594 0.03125-0.011719 0.054688-0.03125 0.085938-0.046875 0.058594-0.03125 0.11328-0.0625 0.16016-0.10938 0.027344-0.023437 0.050781-0.054687 0.074219-0.082031 0.039062-0.046875 0.070312-0.09375 0.10156-0.14844 0.019531-0.035156 0.035157-0.074218 0.046875-0.11328 0.007813-0.027343 0.023438-0.046875 0.03125-0.074219 0.35547-1.5664 0.96875-3.0469 1.8203-4.3984 0.011719-0.019531 0.015625-0.046875 0.027343-0.066406 0.027344-0.050781 0.042969-0.10156 0.058594-0.15234s0.023438-0.097656 0.027344-0.14844c0.003906-0.050782 0-0.10156-0.003906-0.15625-0.007813-0.050782-0.015625-0.10156-0.03125-0.15234-0.015625-0.046875-0.035156-0.09375-0.0625-0.14062s-0.054688-0.09375-0.089844-0.13672c-0.015625-0.019531-0.023438-0.042969-0.039062-0.058594l-1.4766-1.4766c-0.21875-0.21875-0.21875-0.58594 0-0.80078l2.7227-2.7227c0.21875-0.21875 0.58594-0.21875 0.80078 0l1.4766 1.4766c0.039063 0.039062 0.085937 0.058593 0.13281 0.085937 0.03125 0.023438 0.058593 0.046875 0.09375 0.0625 0.11328 0.054688 0.23047 0.089844 0.35156 0.089844 0.089844 0 0.18359-0.019531 0.26953-0.054688 0.027344-0.007812 0.050781-0.023437 0.074219-0.035156 0.027344-0.015625 0.058594-0.023437 0.085938-0.039062 1.3555-0.85547 2.8359-1.4688 4.3984-1.8203 0.023437-0.003906 0.042969-0.023437 0.066406-0.03125 0.054688-0.015625 0.10156-0.039062 0.14844-0.066406s0.085937-0.050781 0.125-0.085937c0.039062-0.035157 0.074219-0.070313 0.10547-0.11328 0.03125-0.039062 0.0625-0.082031 0.085937-0.12891s0.039063-0.089844 0.054687-0.14062c0.015626-0.054687 0.027344-0.10547 0.03125-0.16016 0.003907-0.023438 0.015626-0.046875 0.015626-0.070313v-2.0898c0-0.3125 0.25391-0.56641 0.56641-0.56641h3.8516c0.3125 0 0.56641 0.25391 0.56641 0.56641v2.0898c0 0.023438 0.011719 0.046875 0.015626 0.070313 0.003906 0.054687 0.015624 0.10938 0.03125 0.16016 0.015624 0.050781 0.03125 0.097656 0.054687 0.14062 0.023437 0.046875 0.054687 0.085938 0.085937 0.12891 0.03125 0.039063 0.066407 0.078125 0.10547 0.11328 0.039063 0.03125 0.082031 0.058593 0.125 0.085937 0.046875 0.027344 0.097657 0.050781 0.14844 0.066406 0.023437 0.007813 0.042969 0.023438 0.066406 0.03125 1.5664 0.35547 3.0469 0.96484 4.3984 1.8203 0.027344 0.019531 0.058594 0.027344 0.089844 0.039062 0.023438 0.011719 0.046875 0.023438 0.074219 0.035156 0.089844 0.03125 0.17969 0.054688 0.26953 0.054688 0.12109 0 0.23828-0.035156 0.35156-0.089844 0.035156-0.015625 0.0625-0.042968 0.09375-0.0625 0.042969-0.03125 0.09375-0.046875 0.13281-0.085937l1.4766-1.4766c0.22266-0.22266 0.58203-0.22266 0.80078 0l2.7227 2.7227c0.21875 0.21875 0.21875 0.58594 0 0.80078l-1.4766 1.4766c-0.019531 0.019532-0.023438 0.042969-0.039063 0.058594-0.035156 0.042969-0.066406 0.085938-0.089844 0.13672-0.023437 0.046875-0.046874 0.089843-0.0625 0.14062-0.015624 0.050781-0.023437 0.097656-0.03125 0.15234-0.003906 0.050781-0.007812 0.10156-0.003906 0.15234s0.015625 0.097657 0.027344 0.14844c0.015625 0.054687 0.03125 0.10547 0.058594 0.15234 0.011718 0.023438 0.011718 0.046876 0.027344 0.066407 0.85547 1.3516 1.4688 2.832 1.8203 4.3984 0.007812 0.027344 0.023438 0.050782 0.03125 0.074219 0.011719 0.039063 0.027344 0.074219 0.046875 0.11328 0.027344 0.054688 0.0625 0.10156 0.10156 0.14844 0.023437 0.027344 0.046874 0.058594 0.074218 0.082031 0.046875 0.042969 0.10156 0.078125 0.16016 0.10938 0.03125 0.015625 0.054688 0.035156 0.085938 0.046875 0.09375 0.035156 0.19141 0.058594 0.29297 0.058594h2.0859c0.3125 0 0.56641 0.25391 0.56641 0.56641v3.8516c0 0.3125-0.25391 0.56641-0.56641 0.56641h-2.0898c-0.023437 0-0.046874 0.011718-0.070312 0.015625-0.054688 0.003906-0.10938 0.015625-0.16016 0.03125-0.050782 0.015625-0.097656 0.03125-0.14062 0.054687-0.046875 0.023438-0.085938 0.054688-0.12891 0.085938-0.039062 0.03125-0.078124 0.066406-0.11328 0.10547-0.03125 0.039063-0.058593 0.082032-0.085937 0.125-0.027344 0.046876-0.050782 0.097657-0.066406 0.14844-0.007813 0.023438-0.023438 0.042969-0.03125 0.066406-0.35547 1.5664-0.96484 3.0469-1.8203 4.3984-0.011719 0.019531-0.015625 0.046875-0.027344 0.066406-0.027343 0.050781-0.042969 0.10156-0.058593 0.15234-0.015626 0.050781-0.023438 0.097656-0.027344 0.14844s0 0.10156 0.003906 0.15234c0.007812 0.050781 0.015625 0.10156 0.03125 0.15234 0.015625 0.046875 0.035156 0.09375 0.0625 0.13672 0.027344 0.050781 0.054688 0.09375 0.089844 0.13672 0.015625 0.019532 0.023437 0.042969 0.039062 0.058594l1.4766 1.4766c0.21875 0.21875 0.21875 0.58594 0 0.80078zm-19.766-17.043c-1.6641 1.6641-2.5781 3.875-2.5781 6.2266 0 2.3516 0.91406 4.5625 2.5781 6.2266 1.6641 1.6641 3.875 2.5781 6.2266 2.5781 2.3516 0 4.5625-0.91406 6.2266-2.5781 3.4336-3.4336 3.4336-9.0156 0-12.449-3.4336-3.4336-9.0156-3.4336-12.449 0zm11.301 11.301c-1.3555 1.3555-3.1562 2.1016-5.0742 2.1016-1.918 0-3.7188-0.74609-5.0742-2.1016-1.3555-1.3555-2.1016-3.1562-2.1016-5.0742 0-1.918 0.74609-3.7188 2.1016-5.0742 1.3984-1.3984 3.2344-2.0977 5.0742-2.0977 1.8359 0 3.6758 0.69922 5.0742 2.0977 2.7969 2.7969 2.7969 7.3477 0 10.148zm-22.629-20.766c1.2656 0 2.293-1.0312 2.293-2.293v-4.8438c0-1.2656-1.0312-2.293-2.293-2.293-1.2656 0-2.293 1.0312-2.293 2.293v4.8438c0 1.2656 1.0312 2.293 2.293 2.293zm-0.66797-7.1406c0-0.36719 0.30078-0.66797 0.66797-0.66797 0.36719 0 0.66797 0.30078 0.66797 0.66797v4.8438c0 0.36719-0.30078 0.66797-0.66797 0.66797-0.36719 0-0.66797-0.30078-0.66797-0.66797zm-11.039 8.168c0.30469 0.53125 0.80078 0.91016 1.3945 1.0664 0.19922 0.054688 0.39844 0.078125 0.60156 0.078125 0.39844 0 0.78906-0.10547 1.1406-0.30859 0.53125-0.30469 0.91016-0.80078 1.0664-1.3945 0.16016-0.59375 0.078126-1.2109-0.22656-1.7422l-2.4219-4.1953c-0.63281-1.0977-2.0391-1.4727-3.1367-0.83984-1.0977 0.63281-1.4727 2.0391-0.83984 3.1328l2.4219 4.1953zm-0.76953-5.9219c0.15234-0.089844 0.33203-0.10938 0.50391-0.066406 0.17188 0.046875 0.31641 0.15625 0.40625 0.30859l2.4219 4.1953c0.089843 0.15234 0.10937 0.33203 0.066406 0.50391-0.046875 0.17188-0.15625 0.31641-0.30859 0.40625-0.15234 0.089844-0.33203 0.10938-0.50391 0.066407-0.17188-0.046876-0.31641-0.15625-0.40625-0.30859l-2.4219-4.1953c-0.18359-0.31641-0.074219-0.72656 0.24219-0.91016zm-9.9023 9.8086 3.9844 2.7578c0.39844 0.27344 0.85156 0.40625 1.3008 0.40625 0.73047 0 1.4453-0.34375 1.8906-0.98828 0.71875-1.0391 0.45703-2.4727-0.58203-3.1914l-3.9844-2.7578c-1.0391-0.71875-2.4727-0.45703-3.1914 0.58203-0.71875 1.0391-0.45703 2.4727 0.58203 3.1914zm0.75781-2.2656c0.10156-0.14453 0.25391-0.24219 0.42969-0.27344 0.17578-0.03125 0.35156 0.003906 0.5 0.10547l3.9844 2.7578c0.30078 0.21094 0.37891 0.625 0.16797 0.92578-0.21094 0.30078-0.625 0.37891-0.92578 0.16797l-3.9844-2.7578c-0.30078-0.21094-0.37891-0.625-0.16797-0.92578zm0.13281 11.129h-4.8438c-1.2656 0-2.293 1.0312-2.293 2.293 0 1.2656 1.0312 2.293 2.293 2.293h4.8438c1.2656 0 2.293-1.0312 2.293-2.293 0-1.2656-1.0312-2.293-2.293-2.293zm0 2.9609h-4.8438c-0.36719 0-0.66797-0.30078-0.66797-0.66797 0-0.36719 0.30078-0.66797 0.66797-0.66797h4.8438c0.36719 0 0.66797 0.30078 0.66797 0.66797 0 0.36719-0.30078 0.66797-0.66797 0.66797z"/>

    </g><g data-name="business_name" fill="#FFFFFF" data="id:310" transform="translate(261.83671762777277,48.862364762050106) scale(4.4715275183636916)"><path d="M3.56,48l0-28.36l2.8,0l0,16.48l15.64-16.52l3.08,0l-11.6,12.48l12.2,15.92l-3.16,0l-10.84-14.24l-5.32,5.52l0,8.72l-2.8,0z"/></g></svg>